<svg width="48" height="48" viewBox="0 0 48 48" fill="none" xmlns="http://www.w3.org/2000/svg">
  <!-- Background circle -->
  <circle cx="24" cy="24" r="22" fill="white" stroke="#3B82F6" stroke-width="2"/>
  
  <!-- Shirt icon in red -->
  <path d="M16 18C16 16.8954 16.8954 16 18 16H30C31.1046 16 32 16.8954 32 18V20C32 21.1046 31.1046 22 30 22H18C16.8954 22 16 21.1046 16 20V18Z" fill="#EF4444"/>
  
  <!-- Collar -->
  <path d="M20 18C20 17.4477 20.4477 17 21 17H27C27.5523 17 28 17.4477 28 18V19C28 19.5523 27.5523 20 27 20H21C20.4477 20 20 19.5523 20 19V18Z" fill="#1E40AF"/>
  
  <!-- Sleeves -->
  <path d="M14 22C14 20.8954 14.8954 20 16 20H18C19.1046 20 20 20.8954 20 22V26C20 27.1046 19.1046 28 18 28H16C14.8954 28 14 27.1046 14 26V22Z" fill="#EF4444"/>
  <path d="M28 22C28 20.8954 28.8954 20 30 20H32C33.1046 20 34 20.8954 34 22V26C34 27.1046 33.1046 28 32 28H30C28.8954 28 28 27.1046 28 26V22Z" fill="#EF4444"/>
  
  <!-- Body -->
  <path d="M18 22H30V32C30 33.1046 29.1046 34 28 34H20C18.8954 34 18 33.1046 18 32V22Z" fill="#EF4444"/>
  
  <!-- Water drops -->
  <circle cx="22" cy="28" r="1.5" fill="#3B82F6"/>
  <circle cx="26" cy="28" r="1.5" fill="#3B82F6"/>
  <circle cx="24" cy="30" r="1" fill="#3B82F6"/>
</svg>
